<svg xmlns="http://www.w3.org/2000/svg" width="1000" height="1000" version="1.0" viewBox="0 0 750 750"><path fill="#fff" d="M300 14q-2 5 3 7l4 2-4 2q-9 5-7-5 1-7-3-6-5-2-4 10v9l-25 14-28 16-50 28V65h-9v32l-4 3q-7 3-3 6h4l4-2-1 22v21l-8 4-52 30-46 25c-2 0-2 8-2 63 0 54 0 63-2 65l-18 11c-15 9-15 9-15 6q0-4-4-4l-3 3v5q0 3-14 11l-13 8 2 4c1 2 2 2 12-4q11-6 12-5l1 60v58l-8 5q-10 4-6 7 1 3 7-1l6-2 1 11-4-2q-5-3-6 1c-2 3-1 4 23 17l32 19 7 4-7 4-8 5 2 3c2 3 3 3 11-2l10-5-9 6-9 6 2 4q0 4 12-4l4-3v75l4-1q5 0 4-5v-4l5 3 6 3-5 4q-9 5-5 8l9-4 8-4 5 3 98 57-11 7-12 8 2 3c2 2 3 2 16-5l13-8 5 2q5 5 6 0 3-3-1-4l-3-2 3-2 18-10c12-8 14-8 17-7l102 59q4 5 8 0l104-60 16 8q24 13 19 13l-3 1q-3 2-1 4 2 3 7 0c5-2 5-2 18 5l14 8q4-1 4-6l-12-7-11-7 52-30 51-30 8 4 9 4q4-3-5-8l-6-3 5-3q8-6 7 1-2 6 3 5h5v-74l7 4q9 5 9 2l2-3c0-1-9-8-11-8l-4-3 6 3c10 5 10 5 12 2q4-3-8-9l-5-3 9-6 32-18c23-13 23-13 21-16q-2-4-6-1l-4 2v-12l7 3q7 4 7 1 4-3-6-7l-8-5 1-120 12 7c10 6 11 6 12 4l2-4-13-8-14-9v-6q0-3-3-4-4 0-4 4c0 3 0 3-16-6l-18-12-1-64c0-57 0-63-2-63l-9-4-11-6-45-26-41-24v-21c0-21 0-21 3-19h4q4-3-3-6l-4-3V65h-9v13q1 12-1 13l-24-13-51-29-27-16v-9q1-12-4-10-4-1-3 8v7l-5-3-6-3 4-3q6-3 2-7c-1-2-6 0-51 27l-14 8V31h-18v17l-32-18-32-19zm45 30q20 12 20 14l-14 9-54 30c-1-1-2-60 0-61l8-5 8-5 5 3zm108-8 1 31v31l-4-2-65-38c-1-1 10-8 25-16l27-16 8 5zM289 72c0 28 0 31-2 32l-12 7-9 5-8-4c-9-5-10-5-11-2q-1 1 5 6l7 4-60 35 2 4c2 2 3 2 18-7l23-13 15-9 10-5 12 6 10 6v92l-4 3q-7 2-3 6h3l3-1 1 28v28h7v-30l1-31 34-20 35-20v133h18V192l35 20 34 20 1 31v30h7v-28c0-27 0-29 2-28q7 3 6-1 0-2-4-4l-4-3v-92l10-6 12-6 32 18c25 14 32 18 34 17l2-4-30-19-30-17 7-4q6-5 5-6c-1-3-2-3-11 2l-8 4-12-7-11-6V72l1-31 18 10 24 14 60 35v41l-6-3c-6-4-6-4-8-1l-2 4 8 5 8 7 1 49-1 48h9v-93a1151 1151 0 0 1 98 57v114l-40-23c-37-21-40-23-42-21v4l41 25 41 23v21h5q6 1 5-5c-1-10 0-10 18 1l17 9v122l-6-4-27-16-20-11v-29l8-4q11-6 6-9 0-2-8 2l-6 4v-70h-9v73c-1 2-19 14-22 14l-78-45-1-6q1-6-3-5-4-1-4 3c0 4-1 4-24-10-21-12-24-13-26-12l-2 3 26 15 26 15v81l-13-7-98-57q-4-2-6 1l-1 4 13 8 63 37-43-24c-31-17-35-19-36-17l-2 3a1415 1415 0 0 0 113 67c2 1-5 5-63 39l-6 3-26-15-27-15c-4 3 1 6 22 18l24 15-2 2q-5 1-2 5 0 3 7 0l5-3 20 11 48 28 10 6v27l-31 18-32 19 1 4c2 2 5 1 32-15l30-17v7c0 8 1 8 4 8q4 2 3-6c0-14 0-13 12-20l12-7 26 15 27 15c1 2-5 5-51 32l-52 29-33-18-3-2 6-4 7-4-2-3-3-4-9 5-8 5-42-25c-39-22-42-24-44-21q-3 3 0 4l77 45-22 15-49 28-27 15-14-8-20-11-64-39 32-18 33-19 7-5q10-4 5-8c-2-2-4-1-20 8l-42 25-24 14-8-5-9-4-3 3q-4 4 5 7l6 4-3 2-33 18-102-59c-1-1 10-8 25-17l27-15 12 7q11 6 11 10l1 9q-1 9 3 7 4 2 4-7 0-8 2-7l30 17c25 15 28 16 30 14l1-4-32-19-31-18v-27l8-4 39-23 31-18 5 3q7 3 7 0 3-4-2-5c-4-1-3-3 23-17 20-12 25-15 21-18l-27 15-26 15-8-5-29-16-26-15-7-4 57-35 57-33-1-4c-2-3 4-7-69 36l49-30c17-10 17-10 15-14-3-3 4-6-101 54l-16 9v-40c0-34 0-40 2-42l50-29-1-3c-2-2-7 0-26 12-24 14-25 14-25 10q0-3-4-3-4-1-3 6l-1 6-67 38-8 5q-1 3-13-4l-11-7c-1 0-2-16-2-38v-36l-4-1h-4v70l-6-4q-7-3-8-2-5 3 6 9l8 4v28l-26 16-27 15V362l10-5 25-13v13h10v-21l32-18 42-24q11-6 8-9l-3-2-76 43-3 2V213l10-6 9-5 79-45v93h9l-1-48 1-49 8-7 8-5-2-4c-2-3-2-3-8 1l-6 2v-39l9-7 14-8 79-45zm87-25q0 5-1 4l-1-5 1-5zm0 20-1 5V62zm-10 54v53l-3-2-11-6-21-12-31-18c-4-2-4-1-4-16q-1-12 2-13c1-1 66-40 68-40zm63-28 23 14q3 1 2 14l-1 13-34 20-34 20-1-53V67l12 7zm-53-7q0 4-1 3l-1-4 1-3zm-87 43-14-8 7-5 7-4zm186-8-14 8v-17l7 4zm-99 6-1 3-1-5q0-3 1-2zm0 17q-2 8-2 0l1-4zm78 39v42l-9-5c-34-19-61-35-61-37s29-19 61-37l9-5zm-122-21c19 10 34 20 34 21 0 2-44 28-64 38l-6 4v-42l1-41zm44 12-1 2-1-1q0-4 2-1m0 31q0 7-1 6l-1-7 1-6zm0 20q-2 7-2 0l1-3zm0 18q0 4-1 3l-1-4q0-4 1-3zm0 17q-2 7-2 0l1-4zm0 30-1 3-1-5 1-3zm0 17q-2 6-2 0l1-4zM197 438l-1 41-21-11-35-20-15-9c0-1 4-4 41-25l30-16zm396-19 32 19-16 10-54 30c-2 1-2-4-2-39v-41h4zm-489 15 7 4-7 5q-8 5-8 2v-14q-1-3 8 3m550-3c1 7 0 15-1 15l-14-8 14-8zm-468 50-89 53c-2 1-2-75-1-78q2-3 12-8l10-6 33 19zm466-27c2 2 3 8 2 41v40l-5-2-87-51 7-4c3-1 19-10 34-20l28-16 10 5zM87 501v41l-4-2-15-9-17-10-11-6-6-4v-21l26-15 26-14c1-1 1 18 1 40m584-37 26 15 19 11v21l-24 14-27 15c-2 2-2-1-2-39v-41zm-475 25-43 25-33 19-23 13c-1-1 7-5 16-11l22-12 32-19q34-19 29-15m409 27 30 20-23-13zm-358 0 29 18-15 8-19 11-21 13-17 9v-81q1-3 7 2zm299 19v40l-36-20-35-22 15-10 55-29zm-349 5v39l-11 7-11 6-36-20-35-21 14-8q77-45 78-44zm406-14 43 25-35 21-36 20-10-6-11-6-1-81c1-1-1-2 50 27m-483 43 46 28-53 30-10-4-8-5v-31l1-31zm535 17-1 31-9 7-8 4-26-15-26-16c0-2 66-41 68-40q2 2 2 29m-458 10q1 13-6 6l-7-4-4-2 8-5 8-4zm371 0-14 8v-16c0-2 14 6 14 8m0 0"/><path fill="#fff" d="m308 306-1 41-7 4-35 21c-25 14-28 16-26 18s6 0 34-16l34-19c1-1 1 9 1 20v21h7v-46l17-10c23-13 23-13 22-15l-2-3-19 11-18 10v-79h-7Zm127-4v40l-18-10-19-10-2 3c-1 2-1 2 22 15l16 10 1 23c0 22 0 23 4 23 3 1 3 1 3-21 0-11 0-21 1-20l34 19c28 17 32 18 34 16 3-2 6 0-42-28l-27-15v-83h-7ZM333 434c-1 2 1 4 17 13l19 11-4 3-34 19-30 18 2 2q0 4 13-5l35-20 24-13 18 10 35 20c15 9 18 10 19 8l2-2-64-37-4-3 17-10 19-12q4-8-22 7l-20 12-20-12c-18-10-21-11-22-9m0 0"/></svg>